<?xml version="1.0" encoding="UTF-8"?>
<!DOCTYPE svg PUBLIC "-//W3C//DTD SVG 1.1//EN" "http://www.w3.org/Graphics/SVG/1.1/DTD/svg11.dtd">
<svg xmlns="http://www.w3.org/2000/svg" version="1.1" width="1920px" height="1920px" style="shape-rendering:geometricPrecision; text-rendering:geometricPrecision; image-rendering:optimizeQuality; fill-rule:evenodd; clip-rule:evenodd" xmlns:xlink="http://www.w3.org/1999/xlink">
<g><path style="opacity:0.987" fill="#fefffe" d="M 521.5,706.5 C 554.167,706.5 586.833,706.5 619.5,706.5C 634.982,797.767 650.149,889.101 665,980.5C 665.216,982.384 665.883,984.051 667,985.5C 686.023,892.52 705.523,799.687 725.5,707C 777.5,706.333 829.5,706.333 881.5,707C 905.044,708.296 927.044,714.63 947.5,726C 974.288,745.061 988.455,771.227 990,804.5C 991.044,803.377 991.71,802.044 992,800.5C 998.129,769.218 1004.63,738.051 1011.5,707C 1132.83,706.333 1254.17,706.333 1375.5,707C 1387.04,733.916 1398.71,760.749 1410.5,787.5C 1431.52,761.143 1452.18,734.477 1472.5,707.5C 1517.16,706.333 1561.83,706.167 1606.5,707C 1557.82,764.011 1509.15,821.011 1460.5,878C 1488.28,935.86 1515.94,993.693 1543.5,1051.5C 1503.83,1052.83 1464.17,1052.83 1424.5,1051.5C 1411.15,1021.75 1397.82,992.088 1384.5,962.5C 1360.31,992.189 1336.31,1022.02 1312.5,1052C 1188.17,1052.5 1063.83,1052.67 939.5,1052.5C 950.795,995.731 962.629,939.065 975,882.5C 975.667,880.5 975.667,878.5 975,876.5C 955.039,909.925 925.872,930.758 887.5,939C 881.167,940 874.833,941 868.5,942C 840.502,942.5 812.502,942.667 784.5,942.5C 776.83,979.174 769.163,1015.84 761.5,1052.5C 697.499,1052.67 633.499,1052.5 569.5,1052C 566.129,1029.54 562.796,1007.04 559.5,984.5C 531.165,984.333 502.831,984.5 474.5,985C 461.44,1006.95 448.773,1029.12 436.5,1051.5C 397.167,1052.83 357.833,1052.83 318.5,1051.5C 386.471,936.54 454.138,821.54 521.5,706.5 Z M 1229.5,991.5 C 1231.29,979.732 1233.63,968.065 1236.5,956.5C 1180.17,955.667 1123.84,955.167 1067.5,955C 1070.42,943.64 1072.76,932.14 1074.5,920.5C 1126.17,920.5 1177.83,920.5 1229.5,920.5C 1235.63,889.847 1241.63,859.18 1247.5,828.5C 1196.5,828.5 1145.5,828.5 1094.5,828.5C 1096.42,819.889 1098.09,811.222 1099.5,802.5C 1155.17,802.5 1210.83,802.5 1266.5,802.5C 1269.74,785.043 1273.41,767.709 1277.5,750.5C 1297.02,789.713 1316.69,828.88 1336.5,868C 1301.18,909.478 1265.51,950.645 1229.5,991.5 Z M 814.5,798.5 C 828.837,798.333 843.171,798.5 857.5,799C 865.807,798.549 873.307,800.715 880,805.5C 883.813,817.149 882.98,828.482 877.5,839.5C 873.063,844.089 867.729,847.256 861.5,849C 842.537,850.406 823.537,850.906 804.5,850.5C 807.621,833.101 810.955,815.768 814.5,798.5 Z M 542.5,857.5 C 543.117,857.611 543.617,857.944 544,858.5C 544.975,870.259 546.475,881.926 548.5,893.5C 540.193,894.498 531.86,894.831 523.5,894.5C 529.544,882.079 535.878,869.746 542.5,857.5 Z"/></g>
<g><path style="opacity:0.893" fill="#fefffe" d="M 798.5,1108.5 C 807.616,1108.8 816.616,1109.96 825.5,1112C 842.693,1119.03 850.36,1131.86 848.5,1150.5C 844.167,1150.5 839.833,1150.5 835.5,1150.5C 836.071,1133.58 828.071,1123.75 811.5,1121C 797.222,1118.53 784.722,1122.03 774,1131.5C 767.22,1142.36 768.386,1152.19 777.5,1161C 792.55,1166.18 807.55,1171.51 822.5,1177C 833.58,1182.32 839.246,1191.15 839.5,1203.5C 838.011,1225.5 826.345,1238.66 804.5,1243C 789.017,1245.53 774.017,1243.87 759.5,1238C 745.312,1228.79 738.645,1215.63 739.5,1198.5C 744.167,1198.5 748.833,1198.5 753.5,1198.5C 752.421,1217.86 761.421,1229.03 780.5,1232C 794.099,1234.18 806.432,1231.35 817.5,1223.5C 828.993,1212.59 829.326,1201.42 818.5,1190C 816.259,1188.48 813.926,1187.14 811.5,1186C 798.049,1181.97 784.715,1177.64 771.5,1173C 756.975,1163.14 752.475,1149.64 758,1132.5C 762.991,1122.52 770.824,1115.68 781.5,1112C 787.229,1110.43 792.896,1109.27 798.5,1108.5 Z"/></g>
<g><path style="opacity:0.897" fill="#fefffe" d="M 1108.5,1108.5 C 1124.24,1107.36 1138.57,1111.2 1151.5,1120C 1160.43,1128.96 1164.77,1139.79 1164.5,1152.5C 1160.17,1152.5 1155.83,1152.5 1151.5,1152.5C 1151.43,1141.78 1147.1,1133.28 1138.5,1127C 1103.61,1113.69 1078.11,1123.86 1062,1157.5C 1055.41,1173.09 1054.08,1189.09 1058,1205.5C 1064.28,1223.59 1077.11,1232.59 1096.5,1232.5C 1125.44,1230.57 1142.44,1215.23 1147.5,1186.5C 1132.83,1186.5 1118.17,1186.5 1103.5,1186.5C 1103.87,1182.77 1104.54,1179.1 1105.5,1175.5C 1124.5,1175.33 1143.5,1175.5 1162.5,1176C 1157.14,1197.66 1152.47,1219.5 1148.5,1241.5C 1145.5,1241.5 1142.5,1241.5 1139.5,1241.5C 1139.82,1235.15 1139.99,1228.82 1140,1222.5C 1128.65,1237.42 1113.48,1244.76 1094.5,1244.5C 1060.1,1242.43 1042.76,1224.09 1042.5,1189.5C 1042.05,1166.35 1049.22,1146.01 1064,1128.5C 1076.53,1116.48 1091.36,1109.81 1108.5,1108.5 Z"/></g>
<g><path style="opacity:0.893" fill="#fefffe" d="M 1502.5,1108.5 C 1511.3,1108.74 1519.97,1109.91 1528.5,1112C 1545.92,1118.81 1553.59,1131.64 1551.5,1150.5C 1547.17,1150.5 1542.83,1150.5 1538.5,1150.5C 1539.1,1133.6 1531.1,1123.77 1514.5,1121C 1503.14,1119.12 1492.47,1120.96 1482.5,1126.5C 1473.75,1134.25 1471.25,1143.58 1475,1154.5C 1476.83,1157.67 1479.33,1160.17 1482.5,1162C 1496.18,1166.51 1509.85,1171.17 1523.5,1176C 1539.3,1183.1 1545.47,1195.27 1542,1212.5C 1536.88,1229.29 1525.71,1239.45 1508.5,1243C 1494.59,1245.25 1480.92,1244.25 1467.5,1240C 1449.73,1232.01 1441.73,1218.18 1443.5,1198.5C 1447.83,1198.5 1452.17,1198.5 1456.5,1198.5C 1455.81,1217.63 1464.81,1228.8 1483.5,1232C 1493.41,1233.25 1503.08,1232.25 1512.5,1229C 1526.11,1222.62 1531.27,1212.12 1528,1197.5C 1525.87,1194.37 1523.37,1191.54 1520.5,1189C 1505.6,1183.38 1490.6,1178.05 1475.5,1173C 1462.09,1165.83 1456.93,1154.66 1460,1139.5C 1461.91,1128.58 1467.74,1120.41 1477.5,1115C 1485.68,1111.65 1494.01,1109.49 1502.5,1108.5 Z"/></g>
<g><path style="opacity:0.896" fill="#fefffe" d="M 395.5,1111.5 C 412.837,1111.33 430.17,1111.5 447.5,1112C 467.36,1113.87 479.86,1124.37 485,1143.5C 490.24,1169.07 485.907,1192.74 472,1214.5C 460.589,1229.65 445.422,1238.48 426.5,1241C 406.836,1241.5 387.169,1241.67 367.5,1241.5C 376.619,1198.12 385.953,1154.78 395.5,1111.5 Z M 406.5,1123.5 C 419.837,1123.33 433.171,1123.5 446.5,1124C 465.905,1129.1 474.905,1141.76 473.5,1162C 474.326,1187.96 464.326,1208.29 443.5,1223C 438.218,1225.98 432.551,1227.98 426.5,1229C 412.155,1229.83 397.822,1229.67 383.5,1228.5C 391.305,1193.47 398.971,1158.47 406.5,1123.5 Z"/></g>
<g><path style="opacity:0.88" fill="#fefffe" d="M 590.5,1111.5 C 619.835,1111.33 649.169,1111.5 678.5,1112C 677.767,1115.55 676.767,1119.05 675.5,1122.5C 650.842,1123.5 626.176,1123.83 601.5,1123.5C 598.178,1138.43 595.178,1153.43 592.5,1168.5C 615.167,1168.5 637.833,1168.5 660.5,1168.5C 660.459,1172.62 659.793,1176.62 658.5,1180.5C 635.49,1180.17 612.49,1180.5 589.5,1181.5C 586.037,1197.48 582.703,1213.48 579.5,1229.5C 604.5,1229.5 629.5,1229.5 654.5,1229.5C 654.152,1233.56 653.486,1237.56 652.5,1241.5C 622.498,1241.67 592.498,1241.5 562.5,1241C 572.099,1197.92 581.432,1154.75 590.5,1111.5 Z"/></g>
<g><path style="opacity:0.892" fill="#fefffe" d="M 951.5,1111.5 C 956.167,1111.5 960.833,1111.5 965.5,1111.5C 956.286,1154.78 947.286,1198.11 938.5,1241.5C 933.821,1241.67 929.155,1241.5 924.5,1241C 933.893,1197.93 942.893,1154.76 951.5,1111.5 Z"/></g>
<g><path style="opacity:0.887" fill="#fefffe" d="M 1269.5,1111.5 C 1274.87,1111.17 1280.21,1111.51 1285.5,1112.5C 1302.13,1150.28 1318.96,1187.95 1336,1225.5C 1343.9,1187.48 1351.74,1149.48 1359.5,1111.5C 1363.88,1111.17 1368.22,1111.51 1372.5,1112.5C 1362.75,1155.42 1353.42,1198.42 1344.5,1241.5C 1339.24,1241.8 1334.07,1241.47 1329,1240.5C 1312.44,1203.23 1295.77,1165.89 1279,1128.5C 1270.46,1166.02 1262.63,1203.68 1255.5,1241.5C 1250.82,1241.67 1246.15,1241.5 1241.5,1241C 1251.28,1197.95 1260.61,1154.78 1269.5,1111.5 Z"/></g>
</svg>
